<svg xmlns="http://www.w3.org/2000/svg" xmlns:xlink="http://www.w3.org/1999/xlink" viewBox="0 0 281 281"><defs><style>.a,.b{fill:none;}.b{clip-rule:evenodd;}.c{clip-path:url(#a);}.d{clip-path:url(#b);}.e{fill:#002032;}.f{clip-path:url(#c);}.g{fill:#00456a;}.h{clip-path:url(#e);}.i{fill:#005d86;}.j{clip-path:url(#g);}.k{fill:#007299;}.l{clip-path:url(#i);}.m{fill:#0095b7;}.n{clip-path:url(#k);}.o{fill:#fff;}.p{clip-path:url(#m);}</style><clipPath id="a" transform="translate(5 5)"><circle class="a" cx="135.5" cy="135.5" r="135.5"/></clipPath><clipPath id="b" transform="translate(5 5)"><rect class="a" x="-42" y="-139" width="360" height="3411"/></clipPath><clipPath id="c" transform="translate(5 5)"><circle class="a" cx="135" cy="136" r="119"/></clipPath><clipPath id="e" transform="translate(5 5)"><circle class="a" cx="135" cy="136" r="102"/></clipPath><clipPath id="g" transform="translate(5 5)"><circle class="a" cx="135.5" cy="135.5" r="85.5"/></clipPath><clipPath id="i" transform="translate(5 5)"><circle class="a" cx="135.5" cy="135.5" r="68.5"/></clipPath><clipPath id="k" transform="translate(5 5)"><circle class="a" cx="135.5" cy="136.5" r="34.5"/></clipPath><clipPath id="m" transform="translate(5 5)"><polygon class="b" points="155 132.1 133.7 132.1 142.6 108.2 115.9 141.9 136.2 141.8 130.3 164.7 155 132.1"/></clipPath></defs><title>bg-masthead</title><g class="c"><g class="d"><rect class="e" width="281" height="281"/></g></g><g class="f"><g class="d"><rect class="g" x="16" y="17" width="248" height="248"/></g></g><g class="h"><g class="d"><rect class="i" x="33" y="34" width="214" height="214"/></g></g><g class="j"><g class="d"><rect class="k" x="50" y="50" width="181" height="181"/></g></g><g class="l"><g class="d"><rect class="m" x="67" y="67" width="147" height="147"/></g></g><g class="n"><g class="d"><rect class="o" x="101" y="102" width="79" height="79"/></g></g><g class="p"><g class="d"><rect class="m" x="115.9" y="108.2" width="49.2" height="66.48"/></g></g></svg>